<?xml version="1.0" encoding="UTF-8" standalone="no"?>
<svg
   xmlns:dc="http://purl.org/dc/elements/1.1/"
   xmlns:cc="http://creativecommons.org/ns#"
   xmlns:rdf="http://www.w3.org/1999/02/22-rdf-syntax-ns#"
   xmlns:svg="http://www.w3.org/2000/svg"
   xmlns="http://www.w3.org/2000/svg"
   xmlns:sodipodi="http://sodipodi.sourceforge.net/DTD/sodipodi-0.dtd"
   xmlns:inkscape="http://www.inkscape.org/namespaces/inkscape"
   viewBox="0 0 76.720642 76.264458"
   height="76.264458"
   width="76.720642"
   version="1.1"
   id="svg2"
   inkscape:version="0.91 r13725"
   sodipodi:docname="logo.svg">
  <sodipodi:namedview
     pagecolor="#ffffff"
     bordercolor="#666666"
     borderopacity="1"
     objecttolerance="10"
     gridtolerance="10"
     guidetolerance="10"
     inkscape:pageopacity="0"
     inkscape:pageshadow="2"
     inkscape:window-width="1280"
     inkscape:window-height="898"
     id="namedview6"
     showgrid="false"
     fit-margin-top="0"
     fit-margin-left="0"
     fit-margin-right="0"
     fit-margin-bottom="0"
     inkscape:zoom="2.9968254"
     inkscape:cx="40.55198"
     inkscape:cy="37.791314"
     inkscape:window-x="-8"
     inkscape:window-y="-8"
     inkscape:window-maximized="1"
     inkscape:current-layer="svg2" />
  <metadata
     id="metadata8">
    <rdf:RDF>
      <cc:Work
         rdf:about="">
        <dc:format>image/svg+xml</dc:format>
        <dc:type
           rdf:resource="http://purl.org/dc/dcmitype/StillImage" />
        <dc:title></dc:title>
      </cc:Work>
    </rdf:RDF>
  </metadata>
  <defs
     id="defs6" />
  <path
     id="path4138"
     d="m 9.3443529,73.277057 c 0,-1.643071 1.1250001,-8.45499 2.5000001,-15.137598 3.571715,-17.358819 3.67797,-16.875 -3.7060201,-16.875 -4.902721,0 -6.48378,-0.518997 -7.52864896,-2.471353 -1.050508,-1.962893 -0.80238,-2.991598 1.20602196,-5 2.255703,-2.255703 4.138974,-2.528647 17.4472721,-2.528647 17.911004,0 21.66361,1.055991 21.101845,5.938106 -0.36877,3.204857 -0.838024,3.462385 -6.950485,3.814459 -5.568647,0.32075 -6.65076,0.790986 -7.191296,3.125 -1.534854,6.627439 -4.378689,21.152719 -4.378689,22.364762 0,0.874139 3.365029,1.134087 9.833498,0.759633 7.706811,-0.44614 11.056721,-1.286108 15.489513,-3.883898 C 60.539593,55.545874 68.576675,31.619404 62.154911,18.764459 59.052849,12.554823 51.054764,8.7644592 41.05381,8.7644592 c -7.606768,0 -7.777168,0.07444 -8.584457,3.7499998 -0.766611,3.49036 -1.21383,3.75 -6.459191,3.75 l -5.635554,0 0.891428,-5.3125 c 1.981142,-11.80671095 0.940646,-11.23889195 19.693758,-10.74726898 14.843893,0.389142 17.236331,0.769792 22.796953,3.62712698 14.228767,7.311478 17.1271,28.459631 6.791371,49.554342 -8.172954,16.680592 -20.725175,22.878299 -46.335434,22.878299 -14.8435991,0 -14.8683311,-0.005 -14.8683311,-2.987401 z"
     style="fill:#01bbc2"
     inkscape:connector-curvature="0" />
</svg>
