<?xml version="1.0" encoding="iso-8859-1"?>
<!-- Generator: Adobe Illustrator 16.0.0, SVG Export Plug-In . SVG Version: 6.00 Build 0)  -->
<!DOCTYPE svg PUBLIC "-//W3C//DTD SVG 1.1//EN" "http://www.w3.org/Graphics/SVG/1.1/DTD/svg11.dtd">
<svg version="1.1" id="Capa_1" xmlns="http://www.w3.org/2000/svg" xmlns:xlink="http://www.w3.org/1999/xlink" x="0px" y="0px"
	 width="96.737px" height="96.737px" viewBox="0 0 96.737 96.737" style="enable-background:new 0 0 96.737 96.737;"
	 xml:space="preserve">
<g>
	<g>
		<path d="M43.796,25.817l-5.126,14.896c1.531,0.449,3.149,0.696,4.827,0.696c1.989,0,3.898-0.344,5.674-0.969
			c-0.046-0.073-0.088-0.151-0.122-0.235L43.796,25.817z" fill="#c14646"/>
		<path d="M36.04,39.7l-8.15-22.331c-0.948,2.125-1.48,4.477-1.48,6.953C26.41,31.085,30.342,36.93,36.04,39.7z" fill="#c14646"/>
		<path d="M34.874,14.743c0.922-0.055,1.03,1.298,0.11,1.407c0,0-0.925,0.109-1.956,0.163l6.221,18.507l3.739-11.214l-2.661-7.293
			c-0.92-0.055-1.792-0.163-1.792-0.163c-0.921-0.054-0.814-1.461,0.107-1.407c0,0,2.823,0.217,4.501,0.217
			c1.786,0,4.554-0.217,4.554-0.217c0.921-0.054,1.029,1.298,0.109,1.407c0,0-0.928,0.108-1.956,0.163l6.175,18.366l1.704-5.694
			c0.738-2.363,1.299-4.061,1.299-5.523c0-2.112-0.757-3.573-1.408-4.712c-0.865-1.408-1.677-2.6-1.677-4.007
			c0-1.57,1.19-3.032,2.868-3.032c0.076,0,0.147,0.01,0.222,0.014C51.994,8.94,47.944,7.24,43.496,7.24
			c-5.969,0-11.221,3.063-14.275,7.701c0.4,0.013,0.778,0.021,1.099,0.021C32.109,14.959,34.874,14.743,34.874,14.743z" fill="#c14646"/>
		<path d="M60.582,24.323c0.001-2.971-0.758-5.764-2.093-8.198c0.074,0.544,0.115,1.129,0.115,1.757c0,1.734-0.323,3.683-1.299,6.12
			l-5.22,15.089C57.165,36.129,60.582,30.626,60.582,24.323z" fill="#c14646"/>
		<path d="M3.727,48.811h79.702c0.827,0,1.5-0.674,1.5-1.5v-7.479c0-0.817-0.641-1.475-1.452-1.499
			c-7.562-0.242-13.482-6.36-13.482-13.928c0-7.567,5.922-13.685,13.483-13.927c0.812-0.026,1.451-0.685,1.451-1.5V1.5
			c0-0.827-0.673-1.5-1.5-1.5H3.727c-0.827,0-1.5,0.673-1.5,1.5v7.479c0,0.814,0.638,1.473,1.452,1.5
			c7.561,0.242,13.483,6.36,13.483,13.927c0,7.568-5.923,13.686-13.48,13.928c-0.815,0.023-1.455,0.682-1.455,1.499v7.479
			C2.227,48.139,2.9,48.811,3.727,48.811z M43.579,3.899c11.307,0,20.504,9.198,20.504,20.505c0,11.308-9.197,20.507-20.504,20.507
			c-11.308,0-20.506-9.199-20.506-20.507C23.073,13.098,32.271,3.899,43.579,3.899z" fill="#c14646"/>
		<path d="M37.005,70.277c1.196,1.056,2.557,1.966,4.076,2.678c1.801,0.844,3.676,1.342,5.549,1.529
			c-0.011-0.085-0.016-0.174-0.011-0.266l1.347-15.258L37.005,70.277z" fill="#c14646"/>
		<path d="M35.054,68.243l1.461-16.532h-4.26C30.187,57.453,31.386,63.71,35.054,68.243z" fill="#c14646"/>
		<polygon points="48.608,51.711 41.571,51.711 40.03,65.186 48.174,56.617" fill="#c14646"/>
		<path d="M60.491,51.711h-6.687L51.66,70.477l3.959-4.434c1.67-1.826,2.899-3.126,3.521-4.451c0.896-1.912,0.83-3.557,0.724-4.863
			c-0.187-1.644-0.416-3.065,0.181-4.34C60.16,52.139,60.318,51.918,60.491,51.711z" fill="#c14646"/>
		<path d="M63.801,64.729c1.261-2.689,1.758-5.541,1.582-8.312c-0.164,0.524-0.375,1.071-0.642,1.64
			c-0.734,1.57-1.854,3.198-3.772,4.992l-11.127,11.45C55.699,73.971,61.126,70.438,63.801,64.729z" fill="#c14646"/>
		<path d="M94.808,52.395l-1.461-0.685H67.979c1.4,4.664,1.181,9.832-1.042,14.578c-4.797,10.24-17.029,14.668-27.268,9.872
			c-9.315-4.364-13.794-14.877-10.92-24.45h-8.656c-3.849,2.843-9.037,3.601-13.761,1.568c-0.749-0.325-1.607,0-1.954,0.739
			L1.207,60.79c-0.351,0.75-0.027,1.644,0.722,1.995l72.174,33.811c0.749,0.352,1.644,0.027,1.995-0.722l3.173-6.772
			c0.346-0.739,0.046-1.606-0.68-1.973c-6.744-3.427-9.512-11.479-6.301-18.333c3.21-6.853,11.168-9.88,18.118-6.892
			c0.748,0.32,1.604-0.004,1.95-0.742l3.172-6.771C95.881,53.641,95.557,52.746,94.808,52.395z" fill="#c14646"/>
	</g>
</g>
<g>
</g>
<g>
</g>
<g>
</g>
<g>
</g>
<g>
</g>
<g>
</g>
<g>
</g>
<g>
</g>
<g>
</g>
<g>
</g>
<g>
</g>
<g>
</g>
<g>
</g>
<g>
</g>
<g>
</g>
</svg>
